<mxfile host="app.diagrams.net" agent="Mozilla/5.0 (Windows NT 10.0; Win64; x64) AppleWebKit/537.36 (KHTML, like Gecko) Chrome/132.0.0.0 Safari/537.36 Edg/132.0.0.0" version="26.0.7">
  <diagram name="Page-1" id="CCB2cVTdaIu6jNca1BLb">
    <mxGraphModel dx="1842" dy="550" grid="1" gridSize="10" guides="1" tooltips="1" connect="1" arrows="1" fold="1" page="1" pageScale="1" pageWidth="850" pageHeight="1100" math="0" shadow="0">
      <root>
        <mxCell id="0" />
        <mxCell id="1" parent="0" />
        <mxCell id="g794czNFcYQLgTmDLKgu-10" style="edgeStyle=orthogonalEdgeStyle;rounded=0;orthogonalLoop=1;jettySize=auto;html=1;exitX=0.25;exitY=1;exitDx=0;exitDy=0;" edge="1" parent="1" source="2" target="g794czNFcYQLgTmDLKgu-11">
          <mxGeometry relative="1" as="geometry">
            <mxPoint x="43" y="190" as="targetPoint" />
          </mxGeometry>
        </mxCell>
        <mxCell id="g794czNFcYQLgTmDLKgu-13" style="edgeStyle=orthogonalEdgeStyle;rounded=0;orthogonalLoop=1;jettySize=auto;html=1;exitX=0.75;exitY=1;exitDx=0;exitDy=0;" edge="1" parent="1" source="2" target="g794czNFcYQLgTmDLKgu-14">
          <mxGeometry relative="1" as="geometry">
            <mxPoint x="159.99999999999977" y="160" as="targetPoint" />
          </mxGeometry>
        </mxCell>
        <mxCell id="g794czNFcYQLgTmDLKgu-15" style="edgeStyle=orthogonalEdgeStyle;rounded=0;orthogonalLoop=1;jettySize=auto;html=1;exitX=0.5;exitY=1;exitDx=0;exitDy=0;" edge="1" parent="1" source="2" target="g794czNFcYQLgTmDLKgu-16">
          <mxGeometry relative="1" as="geometry">
            <mxPoint x="80" y="280" as="targetPoint" />
          </mxGeometry>
        </mxCell>
        <mxCell id="2" value="Student details" style="rounded=1;arcSize=20;strokeWidth=2" parent="1" vertex="1">
          <mxGeometry x="8" y="60" width="138" height="54" as="geometry" />
        </mxCell>
        <mxCell id="g794czNFcYQLgTmDLKgu-28" style="edgeStyle=orthogonalEdgeStyle;rounded=0;orthogonalLoop=1;jettySize=auto;html=1;exitX=0.5;exitY=1;exitDx=0;exitDy=0;" edge="1" parent="1" source="3" target="g794czNFcYQLgTmDLKgu-29">
          <mxGeometry relative="1" as="geometry">
            <mxPoint x="273.23809523809496" y="260" as="targetPoint" />
          </mxGeometry>
        </mxCell>
        <mxCell id="g794czNFcYQLgTmDLKgu-31" style="edgeStyle=orthogonalEdgeStyle;rounded=0;orthogonalLoop=1;jettySize=auto;html=1;exitX=1;exitY=1;exitDx=0;exitDy=0;" edge="1" parent="1" source="3" target="g794czNFcYQLgTmDLKgu-32">
          <mxGeometry relative="1" as="geometry">
            <mxPoint x="340" y="190" as="targetPoint" />
          </mxGeometry>
        </mxCell>
        <mxCell id="g794czNFcYQLgTmDLKgu-34" style="edgeStyle=orthogonalEdgeStyle;rounded=0;orthogonalLoop=1;jettySize=auto;html=1;exitX=0;exitY=1;exitDx=0;exitDy=0;" edge="1" parent="1" source="3" target="g794czNFcYQLgTmDLKgu-35">
          <mxGeometry relative="1" as="geometry">
            <mxPoint x="189.99999999999977" y="270.7618931361607" as="targetPoint" />
            <Array as="points">
              <mxPoint x="235" y="217" />
              <mxPoint x="190" y="217" />
            </Array>
          </mxGeometry>
        </mxCell>
        <mxCell id="g794czNFcYQLgTmDLKgu-37" style="edgeStyle=orthogonalEdgeStyle;rounded=0;orthogonalLoop=1;jettySize=auto;html=1;exitX=1;exitY=0;exitDx=0;exitDy=0;entryX=0.5;entryY=0;entryDx=0;entryDy=0;" edge="1" parent="1" source="3" target="g794czNFcYQLgTmDLKgu-38">
          <mxGeometry relative="1" as="geometry">
            <mxPoint x="390" y="280" as="targetPoint" />
            <Array as="points">
              <mxPoint x="312" y="120" />
              <mxPoint x="400" y="120" />
              <mxPoint x="400" y="270" />
              <mxPoint x="390" y="270" />
            </Array>
          </mxGeometry>
        </mxCell>
        <mxCell id="3" value="Course details" style="rhombus;strokeWidth=2;whiteSpace=wrap;" parent="1" vertex="1">
          <mxGeometry x="196" y="9" width="155" height="155" as="geometry" />
        </mxCell>
        <mxCell id="4" value="Joining details" style="rounded=1;arcSize=20;strokeWidth=2" parent="1" vertex="1">
          <mxGeometry x="402" y="60" width="134" height="54" as="geometry" />
        </mxCell>
        <mxCell id="5" value="Session details" style="rhombus;strokeWidth=2;whiteSpace=wrap;" parent="1" vertex="1">
          <mxGeometry x="586" y="8" width="158" height="158" as="geometry" />
        </mxCell>
        <mxCell id="6" value="Completion details" style="rounded=1;arcSize=20;strokeWidth=2" parent="1" vertex="1">
          <mxGeometry x="794" y="60" width="165" height="54" as="geometry" />
        </mxCell>
        <mxCell id="7" value="" style="curved=1;startArrow=none;endArrow=block;exitX=1;exitY=0.5;entryX=0;entryY=0.5;" parent="1" source="2" target="3" edge="1">
          <mxGeometry relative="1" as="geometry">
            <Array as="points" />
          </mxGeometry>
        </mxCell>
        <mxCell id="8" value="" style="curved=1;startArrow=none;endArrow=block;exitX=1.01;exitY=0.5;entryX=0;entryY=0.5;" parent="1" source="3" target="4" edge="1">
          <mxGeometry relative="1" as="geometry">
            <Array as="points" />
          </mxGeometry>
        </mxCell>
        <mxCell id="9" value="" style="curved=1;startArrow=none;endArrow=block;exitX=1;exitY=0.5;entryX=0;entryY=0.5;" parent="1" source="4" target="5" edge="1">
          <mxGeometry relative="1" as="geometry">
            <Array as="points" />
          </mxGeometry>
        </mxCell>
        <mxCell id="10" value="" style="curved=1;startArrow=none;endArrow=block;exitX=1;exitY=0.5;entryX=0;entryY=0.5;" parent="1" source="5" target="6" edge="1">
          <mxGeometry relative="1" as="geometry">
            <Array as="points" />
          </mxGeometry>
        </mxCell>
        <mxCell id="g794czNFcYQLgTmDLKgu-17" style="edgeStyle=orthogonalEdgeStyle;rounded=0;orthogonalLoop=1;jettySize=auto;html=1;exitX=0.25;exitY=1;exitDx=0;exitDy=0;" edge="1" parent="1" source="g794czNFcYQLgTmDLKgu-11">
          <mxGeometry relative="1" as="geometry">
            <mxPoint x="-90" y="280" as="targetPoint" />
          </mxGeometry>
        </mxCell>
        <mxCell id="g794czNFcYQLgTmDLKgu-19" style="edgeStyle=orthogonalEdgeStyle;rounded=0;orthogonalLoop=1;jettySize=auto;html=1;exitX=0.5;exitY=1;exitDx=0;exitDy=0;" edge="1" parent="1" source="g794czNFcYQLgTmDLKgu-11" target="g794czNFcYQLgTmDLKgu-20">
          <mxGeometry relative="1" as="geometry">
            <mxPoint x="-40" y="300" as="targetPoint" />
            <Array as="points">
              <mxPoint y="280" />
              <mxPoint x="-40" y="280" />
            </Array>
          </mxGeometry>
        </mxCell>
        <mxCell id="g794czNFcYQLgTmDLKgu-11" value="gender" style="rounded=1;arcSize=10;whiteSpace=wrap;html=1;align=center;" vertex="1" parent="1">
          <mxGeometry x="-50" y="170" width="100" height="40" as="geometry" />
        </mxCell>
        <mxCell id="g794czNFcYQLgTmDLKgu-14" value="s_id" style="rounded=1;arcSize=10;whiteSpace=wrap;html=1;align=center;" vertex="1" parent="1">
          <mxGeometry x="109.99999999999977" y="170" width="100" height="40" as="geometry" />
        </mxCell>
        <mxCell id="g794czNFcYQLgTmDLKgu-23" style="edgeStyle=orthogonalEdgeStyle;rounded=0;orthogonalLoop=1;jettySize=auto;html=1;exitX=0.25;exitY=1;exitDx=0;exitDy=0;" edge="1" parent="1" source="g794czNFcYQLgTmDLKgu-16" target="g794czNFcYQLgTmDLKgu-25">
          <mxGeometry relative="1" as="geometry">
            <mxPoint x="52.28571428571422" y="350" as="targetPoint" />
          </mxGeometry>
        </mxCell>
        <mxCell id="g794czNFcYQLgTmDLKgu-26" style="edgeStyle=orthogonalEdgeStyle;rounded=0;orthogonalLoop=1;jettySize=auto;html=1;exitX=0.75;exitY=1;exitDx=0;exitDy=0;" edge="1" parent="1" source="g794czNFcYQLgTmDLKgu-16" target="g794czNFcYQLgTmDLKgu-27">
          <mxGeometry relative="1" as="geometry">
            <mxPoint x="139.99999999999977" y="350" as="targetPoint" />
          </mxGeometry>
        </mxCell>
        <mxCell id="g794czNFcYQLgTmDLKgu-16" value="branch" style="rounded=1;arcSize=10;whiteSpace=wrap;html=1;align=center;" vertex="1" parent="1">
          <mxGeometry x="27" y="250" width="100" height="40" as="geometry" />
        </mxCell>
        <mxCell id="g794czNFcYQLgTmDLKgu-30" style="edgeStyle=orthogonalEdgeStyle;rounded=0;orthogonalLoop=1;jettySize=auto;html=1;entryX=0.5;entryY=1;entryDx=0;entryDy=0;" edge="1" parent="1" source="g794czNFcYQLgTmDLKgu-20" target="g794czNFcYQLgTmDLKgu-29">
          <mxGeometry relative="1" as="geometry">
            <Array as="points">
              <mxPoint x="-95" y="430" />
              <mxPoint x="273" y="430" />
            </Array>
          </mxGeometry>
        </mxCell>
        <mxCell id="g794czNFcYQLgTmDLKgu-20" value="Female" style="rounded=1;arcSize=10;whiteSpace=wrap;html=1;align=center;" vertex="1" parent="1">
          <mxGeometry x="-139" y="340" width="88" height="30" as="geometry" />
        </mxCell>
        <mxCell id="g794czNFcYQLgTmDLKgu-22" value="Male" style="rounded=1;arcSize=10;whiteSpace=wrap;html=1;align=center;" vertex="1" parent="1">
          <mxGeometry x="-130" y="280" width="70" height="30" as="geometry" />
        </mxCell>
        <mxCell id="g794czNFcYQLgTmDLKgu-33" style="edgeStyle=orthogonalEdgeStyle;rounded=0;orthogonalLoop=1;jettySize=auto;html=1;exitX=0.5;exitY=1;exitDx=0;exitDy=0;" edge="1" parent="1" source="g794czNFcYQLgTmDLKgu-25" target="g794czNFcYQLgTmDLKgu-32">
          <mxGeometry relative="1" as="geometry" />
        </mxCell>
        <mxCell id="g794czNFcYQLgTmDLKgu-39" style="edgeStyle=orthogonalEdgeStyle;rounded=0;orthogonalLoop=1;jettySize=auto;html=1;exitX=1;exitY=1;exitDx=0;exitDy=0;entryX=0.5;entryY=1;entryDx=0;entryDy=0;" edge="1" parent="1" source="g794czNFcYQLgTmDLKgu-25" target="g794czNFcYQLgTmDLKgu-38">
          <mxGeometry relative="1" as="geometry">
            <Array as="points">
              <mxPoint x="80" y="380" />
              <mxPoint x="390" y="380" />
            </Array>
          </mxGeometry>
        </mxCell>
        <mxCell id="g794czNFcYQLgTmDLKgu-25" value="AI&amp;amp;ML" style="rounded=1;arcSize=10;whiteSpace=wrap;html=1;align=center;" vertex="1" parent="1">
          <mxGeometry x="8" y="340" width="72.29" height="30" as="geometry" />
        </mxCell>
        <mxCell id="g794czNFcYQLgTmDLKgu-36" style="edgeStyle=orthogonalEdgeStyle;rounded=0;orthogonalLoop=1;jettySize=auto;html=1;exitX=0.75;exitY=0;exitDx=0;exitDy=0;entryX=0.5;entryY=1;entryDx=0;entryDy=0;" edge="1" parent="1" source="g794czNFcYQLgTmDLKgu-27" target="g794czNFcYQLgTmDLKgu-35">
          <mxGeometry relative="1" as="geometry" />
        </mxCell>
        <mxCell id="g794czNFcYQLgTmDLKgu-40" style="edgeStyle=orthogonalEdgeStyle;rounded=0;orthogonalLoop=1;jettySize=auto;html=1;exitX=1;exitY=0.5;exitDx=0;exitDy=0;entryX=0.25;entryY=1;entryDx=0;entryDy=0;" edge="1" parent="1" source="g794czNFcYQLgTmDLKgu-27" target="g794czNFcYQLgTmDLKgu-38">
          <mxGeometry relative="1" as="geometry" />
        </mxCell>
        <mxCell id="g794czNFcYQLgTmDLKgu-27" value="DS" style="rounded=1;arcSize=10;whiteSpace=wrap;html=1;align=center;" vertex="1" parent="1">
          <mxGeometry x="110" y="340" width="70" height="30" as="geometry" />
        </mxCell>
        <mxCell id="g794czNFcYQLgTmDLKgu-29" value="Trainig for girls hacathons" style="rounded=1;arcSize=10;whiteSpace=wrap;html=1;align=center;" vertex="1" parent="1">
          <mxGeometry x="235.12" y="240" width="74.88" height="60" as="geometry" />
        </mxCell>
        <mxCell id="g794czNFcYQLgTmDLKgu-32" value="Introduction to AI" style="rounded=1;arcSize=10;whiteSpace=wrap;html=1;align=center;" vertex="1" parent="1">
          <mxGeometry x="290" y="170" width="100" height="40" as="geometry" />
        </mxCell>
        <mxCell id="g794czNFcYQLgTmDLKgu-35" value="introduction to DS" style="rounded=1;arcSize=10;whiteSpace=wrap;html=1;align=center;" vertex="1" parent="1">
          <mxGeometry x="150" y="250" width="70" height="34.62" as="geometry" />
        </mxCell>
        <mxCell id="g794czNFcYQLgTmDLKgu-38" value="FSD" style="rounded=1;arcSize=10;whiteSpace=wrap;html=1;align=center;" vertex="1" parent="1">
          <mxGeometry x="355" y="290" width="70" height="30" as="geometry" />
        </mxCell>
      </root>
    </mxGraphModel>
  </diagram>
</mxfile>
